<?xml version="1.0" encoding="utf-8"?>
<!-- Generator: Adobe Illustrator 20.1.0, SVG Export Plug-In . SVG Version: 6.00 Build 0)  -->
<svg version="1.1" id="Layer_1" xmlns="http://www.w3.org/2000/svg" xmlns:xlink="http://www.w3.org/1999/xlink" x="0px" y="0px"
	 viewBox="0 0 1366 485" style="enable-background:new 0 0 1366 485;" xml:space="preserve">
<title>TasmeemNavSVG</title>
<path d="M127.6,184.1v13.7c0.1,1.2-0.8,2.3-2.1,2.4c-0.1,0-0.2,0-0.3,0c-7.5,0-14.2-1.6-21.7-3.8c-3.8,29.5-23.8,56.3-50.6,62.7
	c-18.5-11.5-28.1-18-42.3-26.5l1.1-2.1c15.3,8.3,23,11.8,34.8,11.8c18.5,0,41.5-17.7,50.4-51.4c-8.3-22.8-15.5-37-28.4-58.7
	c1.9-1.9,8.8-8.3,13.7-15.8h0.8c8,18,18.2,43.4,20.6,63c7.1,1.8,14.4,2.7,21.7,2.7C127,182,127.6,183,127.6,184.1z"/>
<path d="M230.7,184.6V197c0,1.6-0.8,3.2-2.9,3.2c-10.4,0-17.7-4.3-23-11l-2.9,11c-20.6,0-38.6-3.2-50.9-8.8c-11,6.2-18,8.8-26.3,8.8
	c-1.2,0.1-2.3-0.8-2.4-2c0-0.1,0-0.3,0-0.4v-13.7c0-1.2,1-2.2,2.2-2.2c0.1,0,0.1,0,0.2,0c4.1,0,8.2-0.3,12.3-0.8
	c-1.5-2.1-2.3-4.6-2.4-7.2c0-13.4,25.2-55.7,45.6-55.7c29.7,0,19.8,63.8,47.7,63.8C229.3,181.9,230.6,183,230.7,184.6
	C230.7,184.6,230.7,184.6,230.7,184.6z M200.2,181.7c-11.5-23.3-8.6-60.8-21.2-61.1c-11.2-0.3-33.2,24.1-39.9,45.5
	C155.4,175.5,177.9,180.9,200.2,181.7L200.2,181.7z"/>
<path d="M297.4,163.7c0,2.7-3.5,15.8-6.4,23c-16.9,8.3-40.7,13.4-63,13.4c-1.2,0.1-2.3-0.8-2.4-2c0-0.1,0-0.3,0-0.4v-13.6
	c0-1.2,1.1-2.2,2.3-2.1c0.1,0,0.1,0,0.2,0c21.7,0,45.3-2.7,59.8-7c-4.5-26-9.6-41-18-63c5.4-3.9,10.2-8.6,14.2-13.9h1.1
	C291.2,121.4,297.4,150.4,297.4,163.7z M265,51.2c0,2.9-3.5,8.8-9.6,17.4c-6.2-4.6-12.6-8.8-19.3-12.6c3.8-6.4,7.2-12.1,10.7-18.5
	l1.1-0.3C261.2,44.5,265,46.7,265,51.2z M301.4,51.2c0,2.9-3.5,8.8-9.6,17.4c-6.2-4.6-12.6-8.8-19.3-12.6
	c3.8-6.4,7.2-12.1,10.7-18.5l1.1-0.3C297.7,44.5,301.4,46.7,301.4,51.2L301.4,51.2z"/>
<path d="M407,184.1v13.7c0,1.3-0.5,2.4-2.1,2.4c-4.3,0-8,0-11.8-0.3c-6.7,26.8-24.1,52.2-51.7,59.2c-19-12.1-29.5-18.5-44.5-27.9
	l1.1-2.1c16.6,9.4,24.9,12.9,37,12.9c13.9,0,38.9-13.9,49.8-42.3c-4.5-0.3-9.6-0.8-15.8-1.3c-23-2.7-41-12.9-41-32.1
	c0-22.8,21.4-55.2,39.6-78.5l1.9,1.3c-3.2,3.8-7.5,9.4-12.1,15.5c25.5,17.4,38.3,42.6,38.3,72.3c0,1.7,0,3.4-0.3,5.1h9.4
	c1.1-0.1,2.1,0.8,2.1,1.9C407,183.9,407,184,407,184.1z M331.2,64.9c5.3-3.5,10.8-6.6,16.6-9.1c-7.8-2.4-13.9-8.3-13.9-13.4
	c0-10.4,15.3-23.8,26-23.8c6.4,0,10.5,3.8,10.5,12.3c0,4-1.3,11.8-3,20.1c2.7-0.5,5.6-1.3,9.1-2.1l0.3,1.1
	c-2.2,4.2-4.2,8.5-5.9,12.9c-2.1,0.3-4,0.8-5.9,1.1c-0.8,3.8-1.6,7.2-2.1,10.5l-2.4-0.3c0.8-3.5,1.3-6.7,1.9-9.6
	c-12.6,2.1-20.6,4.6-30.3,8.8L331.2,64.9z M387.7,182.8c-1.9-26.5-15.8-47.1-39.9-63.2c-8.3,13.7-15,27.9-15,37.2
	C332.8,173.7,352.3,181.2,387.7,182.8z M352.3,52.8c4.2,0,8.5-0.4,12.6-1.3c1.3-7.8,2.4-13.4,2.4-16.1c0-3.2-2.1-4.8-5.1-4.8
	c-7,0-17.7,5.9-25.5,14.2C340.8,49.9,344.6,52.8,352.3,52.8z"/>
<path d="M510.1,184.6V197c0,1.6-0.8,3.2-3,3.2c-10.5,0-17.7-4.3-23-11l-3,11c-20.6,0-38.6-3.2-50.9-8.8c-11,6.2-18,8.8-26.3,8.8
	c-1.2,0.1-2.3-0.8-2.4-2c0-0.1,0-0.3,0-0.4v-13.7c0-1.2,1.1-2.2,2.3-2.1c0,0,0,0,0.1,0c4.1,0,8.2-0.3,12.3-0.8
	c-1.5-2.1-2.3-4.6-2.4-7.2c0-13.4,25.2-55.7,45.5-55.7c29.7,0,19.8,63.8,47.7,63.8c1.5-0.1,2.8,1,3,2.5
	C510.1,184.5,510.1,184.6,510.1,184.6z M479.6,181.7c-11.5-23.3-8.6-60.8-21.2-61.1c-11.2-0.3-33.2,24.1-39.9,45.5
	C434.9,175.5,457.4,180.9,479.6,181.7L479.6,181.7z"/>
<path d="M546,168c0,2.4-4.3,16.1-7,23c-7,5.9-18,9.1-31.6,9.1c-1.2,0.2-2.2-0.6-2.4-1.8c0-0.2,0-0.4,0-0.6v-13.6
	c0-1.2,1-2.2,2.2-2.2c0.1,0,0.1,0,0.2,0c12.1,0,22.2-2.4,29.7-6.2c-3-50.9-6.4-100.2-10.2-152.2c6.6-1.5,12.8-4.3,18.2-8.3h0.8
	L546,168z"/>
<path d="M597.7,169.6c-6.7,8-8.6,16.6-8.6,37.8h-2.4c-1.1-72.3-3.2-136.1-8-198.8c6.6-1.5,12.8-4.3,18.2-8.3h0.8L597.7,169.6z"/>
<path d="M810.5,184.1v13.7c0.1,1.2-0.8,2.3-2.1,2.4c-0.1,0-0.2,0-0.3,0c-7.9-0.1-15.7-1.3-23.3-3.5c0.2,2.2,0.3,4.5,0.3,6.7
	c0,30-35.4,55.7-64.8,55.7c-26,0-40.7-15.8-40.7-43.7c0-12.3,3-34,8.8-52.2l2.1,0.8c-4.3,15-7,29.2-7,41.3
	c0,22.5,15.3,36.2,40.7,36.2c20.6,0,40.7-11,53-29.2c-4.6-21.3-10.6-42.2-18-62.7c1.9-1.9,8.8-8.6,13.7-16.1h1.2
	c4,17.4,7.2,33,9.1,46.1c6.4,1.6,17.2,2.4,24.9,2.4C809.9,182,810.5,183,810.5,184.1z M729.3,127c-6.2-4.6-12.6-8.8-19.3-12.5
	c3.8-6.4,7.2-12.1,10.7-18.5l1.1-0.3c13.4,7.2,17.2,9.4,17.2,13.9C738.9,112.6,735.4,118.5,729.3,127z"/>
<path d="M909.6,172c-1.7,6-2.8,12.2-3.2,18.5c-33.5,7.2-66.4,9.6-98.9,9.6c-1.2,0.1-2.3-0.8-2.4-2c0-0.1,0-0.3,0-0.4v-13.6
	c0-1.2,1-2.2,2.2-2.2c0.1,0,0.1,0,0.2,0c11.5,0,24.1-0.3,36.4-0.8c-15-6.2-25.7-16.9-25.7-34.8c0-21.2,19-50.6,39.1-50.6l32.7,21.7
	l-1.3,1.9c-10.7-5.1-17.7-7.3-24.9-7.3c-10.7,0-23.3,6.2-34.8,17.7c0,27.3,20.4,46.9,51.7,48c10.7-1.6,20.4-3.8,28.4-6.7L909.6,172z
	"/>
<path d="M996.4,69.7c-6.2-4.6-12.6-8.8-19.3-12.6c3.8-6.4,7.2-12.1,10.7-18.5l1.1-0.3c13.4,7.2,17.2,9.4,17.2,13.9
	C1006,55.2,1002.5,61.1,996.4,69.7z M1051.3,160.5c0,4.5-5.9,20.9-12.6,33c-8.3,4.3-17.5,6.6-26.8,6.7c-15.8,0-27.3-11-27.3-28.1
	c0-15,4.8-31.9,22.2-55.7l-4.8-3.5c1.6-5.4,2.7-11,3.2-16.6l0.5-0.5C1034.4,111.5,1051.3,143.1,1051.3,160.5z M1040.6,173.9
	c-2.4-22.2-15.5-42.6-31.6-56c-13.7,17.1-19.8,32.1-19.8,42.6c0,12.9,9.9,21.4,24.1,21.4C1022.6,182,1033.1,179.3,1040.6,173.9
	L1040.6,173.9z M1032.8,69.7c-6.2-4.6-12.6-8.8-19.3-12.6c3.8-6.4,7.2-12.1,10.7-18.5l1.1-0.3c13.4,7.2,17.2,9.4,17.2,13.9
	C1042.5,55.2,1039,61.1,1032.8,69.7L1032.8,69.7z"/>
<path d="M1180.4,184.1v13.7c0,1.3-0.5,2.4-2.1,2.4c-7.8,0-18.5-4-26.8-14.7c-17.7,10.5-35.6,14.7-52.2,14.7
	c-18.8,0-29.7-8.6-29.7-24.1c0-6.7,1.6-14.7,3.8-23.8l2.1,0.5c-0.5,4-1.3,7.5-1.3,10.7c0,12.6,8,18.5,30.8,18.5
	c13.5-0.2,26.8-2.7,39.4-7.5c-11.2-19.8-20.6-43.4-31.3-72.3c5.5-3.8,10.5-8.4,14.7-13.7h1.1c8.6,38.9,19.3,65.1,25.2,75.8
	c7,12.3,13.1,17.7,24.4,17.7C1180.2,182,1180.4,183,1180.4,184.1z M1112.9,64.3c-6.2-4.6-12.6-8.8-19.3-12.6
	c3.8-6.4,7.2-12.1,10.7-18.5l1.1-0.3c13.4,7.2,17.2,9.4,17.2,13.9C1122.6,49.9,1119.1,55.8,1112.9,64.3L1112.9,64.3z"/>
<path d="M1248.5,184.1v13.7c0,1.3-0.5,2.4-2.1,2.4c-13.5,0-27-2.1-39.9-6.2c-0.5,1.3-0.8,2.7-1.3,3.8c-7.8,1.9-22.2,2.4-27.6,2.4
	c-1.2,0.1-2.3-0.8-2.4-2c0-0.1,0-0.3,0-0.4v-13.7c0-1.2,1-2.2,2.2-2.2c0.1,0,0.1,0,0.2,0c7.2,0,23-0.3,31.1-1.9l3.2-8.6
	c2.4-7-6.7-46.6-6.7-46.6c5.8-3.7,10.9-8.3,15.3-13.7h0.8l-0.5,39.9c0,1.6-4.3,14.5-8.6,27.3c9.1,2.4,19.6,3.5,34.3,3.5
	C1248.2,182,1248.5,183,1248.5,184.1z M1226.8,231.2c0,3-3.5,8.8-9.6,17.4c-6.2-4.6-12.6-8.8-19.3-12.6c3.8-6.4,7.2-12.1,10.7-18.5
	l1.1-0.3C1223,224.6,1226.8,226.7,1226.8,231.2L1226.8,231.2z"/>
<path d="M1302.1,163.7c0,2.7-3.8,15.8-6.4,23c-15.3,8.7-32.5,13.3-50.1,13.4c-1.2,0.1-2.3-0.8-2.4-2c0-0.1,0-0.3,0-0.4v-13.6
	c0-1.2,1-2.2,2.2-2.2c0.1,0,0.1,0,0.2,0c10.2,0,30.3-1.6,46.6-7c-4.6-26-9.4-41-18-63c5.5-3.9,10.3-8.6,14.5-13.9h1.1
	C1295.9,121.4,1302.1,150.4,1302.1,163.7z M1287.9,53.6c0,2.9-3.5,8.8-9.6,17.4c-6.2-4.6-12.6-8.8-19.3-12.6
	c3.8-6.4,7.2-12.1,10.7-18.5l1.1-0.3C1284.1,46.9,1287.9,49.1,1287.9,53.6L1287.9,53.6z"/>
<path d="M223.3,480.4v2.4h-53v-2.4l14.5-1.2l-21.4-60.3H97.6l-21.7,60.3l17.5,1.2v2.4H54.8v-2.4l16.3-1.2l61.5-169.4h15.7
	l60.9,169.4L223.3,480.4z M156.4,399.6l-25.6-72l-25.9,72H156.4z"/>
<path d="M344.5,423.2c0,35.9-26.5,62.7-58.5,62.7c-15.1,0-25.6-3.6-33.8-8.7l-12.7,8.7V299.5l-15.4,3.3v-3l35-7.8h0.6v99.2
	c9-13.3,22.6-22.9,38-22.9C323.4,368.3,344.5,391.2,344.5,423.2z M324,437.3c0-32.2-16.6-54-40.4-54c-7.5,0-17.2,2.4-23.8,9v62.4
	c0,23.2,15.7,27.4,27.4,27.4C309.8,482.2,324,461.7,324,437.3z"/>
<path d="M421.3,368.3c27.1,0,56.4,21.1,56.4,57.3c0,37.4-28.6,60.3-57,60.3c-27.7,0-56.7-21.4-56.7-57.3
	C364.1,391.2,393.3,368.3,421.3,368.3z M425.3,482.2c18.4-0.9,30.8-18.4,28.9-52.8c-1.8-37.1-16.6-58.5-37.7-57.6
	c-18.4,0.9-30.8,18.4-28.9,52.8C389.4,461.7,404.2,483.1,425.3,482.2L425.3,482.2z"/>
<path d="M608.8,474.1v3l-34.7,7.5v-22c-8.1,13.9-21.1,23.2-38.6,23.2c-19.9,0-32.2-11.8-32.2-41.3V377l-15.3,3.6v-3l35-7.8h0.6V437
	c0,26.5,8.1,34.7,24.7,34.7c9.7,0,19.9-3.6,25.9-10.2V377l-15.4,3.6v-3l35-7.8h0.6v107.3L608.8,474.1z"/>
<path d="M636.6,386.4H614l3.9-13.3h18.7v-24.4c7.5-1.8,14.8-6,19.3-11.5h0.9v35.9h38l-3.9,13.3h-34.1v66c0,17.8,6.6,21.7,17.5,21.7
	c8.4,0,17.5-3.3,23.5-10.2l1.8,1.5c-10.2,13.6-23.8,20.5-36.8,20.5c-15.7,0-26.2-6.9-26.2-30.8L636.6,386.4z"/>
</svg>
