<?xml version="1.0" encoding="utf-8"?>
<!-- Generator: Adobe Illustrator 20.1.0, SVG Export Plug-In . SVG Version: 6.00 Build 0)  -->
<svg version="1.1" id="Layer_1" xmlns="http://www.w3.org/2000/svg" xmlns:xlink="http://www.w3.org/1999/xlink" x="0px" y="0px"
	 viewBox="0 0 1366 500" style="enable-background:new 0 0 1366 500;" xml:space="preserve">
<title>TasmeemNavSVG</title>
<path d="M677.6,152c-5.9,7.1-7.6,14.7-7.6,33.5h-2.1c-1-64.2-2.8-120.8-7.1-176.4c5.8-1.3,11.3-3.8,16.2-7.4h0.7V152z"/>
<path d="M802.7,179.6c0,31.6-34,51.8-59.4,51.8c-24.5,0-38.3-14-38.3-38c0-12.6,2.4-30.7,7.8-48l1.7,0.7c-3.8,13.5-6.4,27.3-6.4,38
	c0,21.6,13.8,31.4,35.7,31.4c19.3,0,39-10,51.6-26.1c-3.6-56.1-6.4-108.4-9.8-166.9c5.8-1.3,11.3-3.8,16.2-7.4h0.7L802.7,179.6z"/>
<path d="M908.7,145.9v0.7c-3.5,6.9-6.1,14.1-7.8,21.6c-21.2,0-38.3,1.9-62.1,9.8c2.8,18.1,5.2,37.1,11.9,69.4
	c-4.6,3-8.8,6.5-12.6,10.5h-0.7c-2.6-44.2-4.5-69.7-4.5-79.9c0-2.1,4.3-10.9,7.1-16.2c20.5-5.9,33.3-9,54.2-9.3
	c-14.7-13.5-23.3-37.3-33.8-37.3c-6.4,0-12.1,6.9-21.4,19.3l-1.7-1.4c8.8-12.1,15.7-20.2,27.6-32.8
	C882.6,105.7,884,123.5,908.7,145.9z"/>
<path d="M1010.7,129.7c-1.5,5.3-2.3,10.7-2.6,16.2c-42.3,3.8-72.8,26.6-72.8,69.9c0,10,2.4,19.8,7.1,28.5l-1.7,1
	c-5.7-9.5-8.8-23.1-8.8-35.4c0-28.3,12.4-51.1,34.2-65.6c-18.5-5.2-30.7-16.2-30.7-34.2c0-19,16.9-44.9,34.7-44.9
	c9.8,6.4,13.5,8.8,29,19l-1.2,1.9c-9.5-4.5-15.7-6.5-22.1-6.5c-9.5,0-20.7,5.5-30.9,15.5c0,20.7,13.1,38.5,40.4,39.9
	c8-2.9,16.3-4.9,24.7-5.9L1010.7,129.7z"/>
<path d="M1020.5,216.5c16.4,0,36.8-15.7,44.7-45.6c-7.4-20.2-13.8-32.8-25.2-52.1c1.7-1.7,7.8-7.4,12.1-14h0.7
	c8.1,18.1,18.8,45.2,18.8,62.8c0,29.2-19.3,57.8-45.4,64c-16.4-10.2-25-15.9-37.6-23.5l1-1.9C1003.1,213.4,1010,216.5,1020.5,216.5z
	"/>
<path d="M1292.7,132.8c0,27.8-45.7,46.4-83.9,46.4c-6.4,0-12.9-0.4-19.3-1.2v4c0,26.6-31.4,49.5-57.5,49.5
	c-23.1,0-36.1-14-36.1-38.8c0-10.9,2.6-30.2,7.8-46.4l1.9,0.7c-3.8,13.3-6.2,25.9-6.2,36.6c0,20,13.6,32.1,36.1,32.1
	c18.3,0,36.1-9.8,47.1-25.9c-4-18.9-9.4-37.5-15.9-55.6c1.7-1.7,7.8-7.6,12.1-14.3h1c3.6,15.5,6.4,29,8.1,40.9c1,0,1.9,0.2,2.8,0.5
	c32.1-46.8,51.8-69.4,63-69.2C1273.9,92.1,1292.7,117.1,1292.7,132.8z M1284.8,141.1c-8.1-20.2-20.9-32.8-37.6-32.8
	c-15.2,0-23.5,9.8-54.4,53.5c7.4,0.9,14.9,1.3,22.3,1.2C1236.8,163,1267,154.4,1284.8,141.1L1284.8,141.1z M1214.9,82.1
	c-5.5-4.1-11.2-7.8-17.1-11.2c3.3-5.7,6.4-10.7,9.5-16.4l1-0.2c11.9,6.4,15.2,8.3,15.2,12.4C1223.5,69.3,1220.4,74.5,1214.9,82.1
	L1214.9,82.1z"/>
<path d="M198.5,271.4l9.3,47l-2.7,0.9l-13.6-23.5c-11.1-19.6-24.4-28.9-46.1-28.9c-40.4,0-65.1,30.5-65.1,85.9
	c0,55.2,25,85.9,63.9,85.9c14.2,0,27.1-2.7,35.9-7.8v-73.2l-17.5-1.2V354h57.9v2.4l-17.5,1.2v73c-18.7,7.7-38.6,11.7-58.8,11.8
	c-49.7,0-90.1-37.1-90.1-89.5c0-52.8,41-89.5,91.6-89.5C165,263.2,186.4,266.8,198.5,271.4z"/>
<path d="M340.7,431.7L311.5,442c-4.5-3.6-8.7-13-8.7-25.9c-5.4,13.3-17.5,26.2-35.6,26.2s-32-12.1-32-27.4c0-16,17.8-25.3,41-37.1
	c11.8-6,20.8-12.1,27.1-19.6c-0.6-18.4-11.8-28.6-26.8-28.6c-20.8,0-26.8,18.7-26.8,39.2h-0.6l-12.4-6c0.9-19.6,25.6-38.6,51.2-38.6
	c19.3,0,36.5,7.2,35.6,35.6c-0.6,17.5-0.9,34.7-0.9,45.5c0,9.7,0,23.2,5.4,28l11.8-3.9L340.7,431.7z M303.4,362.7
	c-5.7,6-14.2,11.8-24.1,17.2c-14.2,7.2-22.3,14.5-22.3,25.9c0,13.3,10.2,23.5,22.6,23.5c10.5,0,22.6-7.2,22.9-21.4L303.4,362.7z"/>
<path d="M396.5,436.8v2.4h-48.2v-2.4l14.2-0.9v-180l-15.4,3.3v-3l35-7.8h0.6v187.5L396.5,436.8z"/>
<path d="M458.3,436.8v2.4h-48.2v-2.4l14.2-0.9v-180l-15.4,3.3v-3l35-7.8h0.6v187.5L458.3,436.8z"/>
<path d="M572.8,405.5c-10,17.8-23.8,36.8-48.5,36.8c-29.5,0-50.3-24.1-50.3-55.5c0-37.4,23.5-62.1,53.1-62.1
	c23.5,0,42.2,14.5,39.8,38.6h-76c-0.2,2.1-0.4,4.2-0.3,6.3c0,32.6,19.6,53.4,46.1,53.4c15.1,0,25.6-6.9,34.1-19L572.8,405.5z
	 M491.2,359.7h44.6c8.7,0,10-2.4,10-7.8c0-11.2-6.3-23.2-22.9-23.2C505.3,328.6,493.9,339.8,491.2,359.7L491.2,359.7z"/>
<path d="M669.3,362.7l-2.1,0.6l-7.8-11.2c-5.7-8.1-11.8-11.2-19-11.2c-8.1,0-15.1,4.2-21.1,11.5V436l21.7,0.9v2.4h-56v-2.4l14.2-0.9
	V333.8l-15.4,3.3v-3l35-7.8h0.6V351c6.9-15.1,22-26.5,38.3-24.7L669.3,362.7z"/>
<path d="M682.9,332.8l-14.2-0.9v-2.4h53.7v2.4l-14.2,0.9l36.5,82.3l32.6-82.3l-16.6-0.9v-2.4H798v2.4l-16.3,0.9l-52.2,132
	c-9.7,24.4-21.7,35.3-40.7,35.3c-3.3,0.1-6.7-0.2-10-0.9l-22.6-32.8l1.5-1.2l13.9,11.2c7.5,6,16.3,9.7,25,9.7
	c11.5,0,22-5.1,29.2-23.2l7.8-19.6L682.9,332.8z"/>
</svg>
