<?xml version="1.0" encoding="utf-8"?>
<!-- Generator: Adobe Illustrator 20.1.0, SVG Export Plug-In . SVG Version: 6.00 Build 0)  -->
<svg version="1.1" id="Layer_1" xmlns="http://www.w3.org/2000/svg" xmlns:xlink="http://www.w3.org/1999/xlink" x="0px" y="0px"
	 viewBox="0 0 1366 540" style="enable-background:new 0 0 1366 540;" xml:space="preserve">
<title>TasmeemNavSVG</title>
<path d="M649.3,180.7V194c0.1,1.2-0.8,2.3-2,2.4c-0.1,0-0.2,0-0.3,0c-7.7-0.1-15.4-1.3-22.8-3.4c0.2,2.2,0.3,4.4,0.3,6.5
	c0,29.3-34.6,54.5-63.4,54.5c-25.4,0-39.8-15.5-39.8-42.7c0-12,2.9-33.3,8.7-51.1l2.1,0.8c-4.2,14.7-6.8,28.6-6.8,40.3
	c0,22,14.9,35.4,39.8,35.4c20.2,0,39.8-10.7,51.9-28.6c-4.5-20.8-10.3-41.3-17.5-61.3c1.8-1.8,8.7-8.4,13.4-15.7h1
	c3.9,17,7.1,32.2,8.9,45.1c6.3,1.6,16.8,2.4,24.4,2.4C648.8,178.6,649.3,179.6,649.3,180.7z M569.9,124.9c-6-4.5-12.3-8.6-18.9-12.3
	c3.7-6.3,7.1-11.8,10.5-18.1l1-0.3c13.1,7.1,16.8,9.2,16.8,13.6C579.3,110.7,575.9,116.5,569.9,124.9L569.9,124.9z"/>
<path d="M723.4,180.7V194c0,1.3-0.5,2.4-2.1,2.4c-13.1,0-27.5-1.6-40.9-5.8c-0.6,1.1-1,2.2-1.3,3.4c-7.1,1.6-19.9,2.4-32.8,2.4
	c-1.2,0.1-2.3-0.8-2.4-2c0-0.1,0-0.3,0-0.4v-13.4c0-1.2,1-2.1,2.2-2.1c0.1,0,0.1,0,0.2,0c14.7,0,28.8-0.5,36.2-1.8l3.1-8.4
	c2.4-6.8-6.5-45.6-6.5-45.6c5.6-3.6,10.6-8.1,14.7-13.4h1l-0.5,39c0,1.6-4.2,14.1-8.6,26.7c8.6,2.4,19.4,3.4,35.6,3.4
	C723.2,178.6,723.4,179.6,723.4,180.7z M680.7,229.4c0,2.9-3.4,8.6-9.4,17c-6-4.5-12.3-8.6-18.9-12.3c3.7-6.3,7.1-11.8,10.5-18.1
	l1-0.3C677,222.9,680.7,225,680.7,229.4L680.7,229.4z M716.3,229.4c0,2.9-3.4,8.6-9.4,17c-6-4.5-12.3-8.6-18.9-12.3
	c3.7-6.3,7.1-11.8,10.5-18.1l1-0.3C712.7,222.9,716.3,225,716.3,229.4L716.3,229.4z"/>
<path d="M788.7,160.8c0,2.6-3.4,15.5-6.3,22.5c-16.5,8.1-39.8,13.1-61.6,13.1c-1.2,0.1-2.3-0.8-2.4-2c0-0.1,0-0.3,0-0.4v-13.4
	c0-1.2,1-2.1,2.2-2.1c0.1,0,0.1,0,0.2,0c21.2,0,44.3-2.6,58.4-6.8c-4.5-25.4-9.4-40.1-17.5-61.6c5.3-3.9,9.9-8.4,13.9-13.6h1
	C782.6,119.4,788.7,147.7,788.7,160.8z M755.7,53.6c0,2.9-3.4,8.6-9.4,17c-6-4.5-12.3-8.6-18.9-12.3c3.7-6.3,7.1-11.8,10.5-18.1
	l1-0.3C752,47.1,755.6,49.2,755.7,53.6L755.7,53.6z M771.4,29.5c0,2.6-3.4,7.3-8.9,14.1c-6.3-4.7-10.5-7.6-15.7-11
	c3.1-5.2,6.3-10.2,9.7-15.2h0.8C768.2,23.5,771.6,25.6,771.4,29.5z M791.3,53.6c0,2.9-3.4,8.6-9.4,17c-6-4.5-12.3-8.6-18.8-12.3
	c3.7-6.3,7.1-11.8,10.5-18.1l1-0.3C787.6,47.1,791.3,49.2,791.3,53.6L791.3,53.6z"/>
<path d="M916.2,180.7V194c0,1.3-0.5,2.4-2.1,2.4c-7.6,0-18.1-3.9-26.2-14.4c-17.3,10.2-34.8,14.4-51.1,14.4
	c-18.3,0-29.1-8.4-29.1-23.6c0-6.5,1.6-14.4,3.7-23.3l2.1,0.5c-0.5,3.9-1.3,7.3-1.3,10.5c0,12.3,7.9,18.1,30.1,18.1
	c13.2-0.2,26.2-2.7,38.5-7.3c-11-19.4-20.2-42.4-30.7-70.7c5.4-3.7,10.3-8.2,14.4-13.4h1c8.4,38,18.9,63.7,24.6,74.1
	c6.8,12,12.8,17.3,23.8,17.3C916,178.6,916.2,179.6,916.2,180.7z"/>
<path d="M1000.6,156.3c-24.1,19.1-49.2,40.1-87.2,40.1c-1.2,0.1-2.3-0.8-2.4-2c0-0.1,0-0.3,0-0.4v-13.4c0-1.2,1-2.1,2.2-2.1
	c0.1,0,0.1,0,0.2,0c48.2,0,64.5-6.5,84.9-23.6c-21-13.9-34.6-36.7-54.5-36.7c-8.7,0-13.6,4.7-25.7,16.8l-1.6-1.6
	c14.2-14.7,21.2-22.3,31.4-31.7c36.4,5,41.9,38.2,77.5,45.6c-5.5,6.3-6.8,8.4-11,15.5C1009.6,161.3,1004.9,159.1,1000.6,156.3z
	 M1038.1,180.7V194c0.1,1.2-0.7,2.2-1.9,2.3c-0.1,0-0.1,0-0.2,0c-28.3,0-36.9-6.8-36.9-34.3h2.4c0,14.1,11.8,16.5,34.6,16.5
	c1.1-0.1,2,0.7,2.1,1.7C1038.1,180.4,1038.1,180.6,1038.1,180.7L1038.1,180.7z"/>
<path d="M1112.2,180.7V194c0,1.3-0.5,2.4-2.1,2.4c-13.1,0-27.5-1.6-40.9-5.8c-0.5,1.1-1,2.2-1.3,3.4c-7.1,1.6-19.9,2.4-32.8,2.4
	c-1.2,0.1-2.3-0.8-2.4-2c0-0.1,0-0.3,0-0.4v-13.4c0-1.2,1-2.1,2.2-2.1c0.1,0,0.1,0,0.2,0c14.7,0,28.8-0.5,36.2-1.8l3.1-8.4
	c2.4-6.8-6.6-45.6-6.6-45.6c5.6-3.6,10.6-8.1,14.7-13.4h1l-0.5,39c0,1.6-4.2,14.1-8.6,26.7c8.6,2.4,19.4,3.4,35.6,3.4
	C1111.9,178.6,1112.2,179.6,1112.2,180.7z M1059,82.2c-6-4.5-12.3-8.6-18.9-12.3c3.7-6.3,7.1-11.8,10.5-18.1l1-0.3
	c13.1,7.1,16.8,9.2,16.8,13.6C1068.4,68,1065,73.8,1059,82.2z M1094.6,82.2c-6-4.5-12.3-8.6-18.9-12.3c3.7-6.3,7.1-11.8,10.5-18.1
	l1-0.3c13.1,7.1,16.8,9.2,16.8,13.6C1104.1,68,1100.7,73.8,1094.6,82.2L1094.6,82.2z"/>
<path d="M1213.3,181.2v12c0,1.6-0.8,3.1-2.9,3.1c-10.2,0-17.3-4.2-22.5-10.7l-2.9,10.7c-20.2,0-37.7-3.1-49.8-8.6
	c-10.7,6-17.6,8.6-25.7,8.6c-1.2,0.1-2.3-0.8-2.4-2c0-0.1,0-0.3,0-0.4v-13.4c0-1.2,1-2.1,2.2-2.1c0.1,0,0.1,0,0.2,0
	c4,0,8.1-0.3,12.1-0.8c-1.5-2.1-2.3-4.5-2.4-7.1c0-13.1,24.6-54.5,44.5-54.5c29.1,0,19.4,62.3,46.6,62.3c1.5-0.1,2.8,1,2.9,2.5
	C1213.3,181.1,1213.3,181.2,1213.3,181.2z M1183.4,178.3c-11.3-22.8-8.4-59.5-20.7-59.7c-11-0.3-32.5,23.6-39,44.5
	C1139.7,172.3,1161.7,177.5,1183.4,178.3L1183.4,178.3z"/>
<path d="M1248.4,165c0,2.4-4.2,15.7-6.8,22.5c-6.8,5.8-17.6,8.9-30.9,8.9c-1.1,0.2-2.2-0.6-2.4-1.8c0-0.2,0-0.4,0-0.6v-13.4
	c0-1.2,1-2.1,2.2-2.1c0.1,0,0.1,0,0.2,0c11.8,0,21.7-2.4,29.1-6c-2.9-49.8-6.3-98-10-148.8c6.4-1.5,12.5-4.2,17.8-8.1h0.8
	L1248.4,165z"/>
<path d="M1299,166.5c-6.6,7.9-8.4,16.2-8.4,36.9h-2.4c-1-70.7-3.1-133.1-7.9-194.4c6.4-1.5,12.5-4.2,17.8-8.1h0.8L1299,166.5z"/>
<path d="M67.7,425.2l2.4-0.9l14.2,23.2c10.6,17.5,21.1,31,38.6,31c24.1,0,41-15.4,41-35.6c0-17.8-9.6-30.5-35.3-40.7l-20.8-8.4
	c-25.9-10.5-36.5-27.1-36.5-47c0-26.5,26.5-43.7,54.3-43.7c14.1,0,28.1,2.5,41.3,7.5l9,47.6l-2.4,0.9l-13.9-22.9
	c-10.9-17.8-19.3-29.5-37.4-29.5c-19.9,0-32.9,11.5-32.9,30.5c0,16.3,8.7,26.5,24.4,32.9l23.5,9.6c29.8,12.4,46.7,24.7,46.7,51.6
	c0,33.2-32.9,51-63,51c-15-0.1-29.9-2.7-44-7.8L67.7,425.2z"/>
<path d="M317.4,419.4c0,35.9-26.5,62.7-60.6,62.7c-9.3,0-18.4-1.2-23.8-3.6v57.3l19.9,0.9v2.4h-54.3v-2.4l14.2-0.9V373.6l-15.4,3.3
	v-3l35-7.8h0.6v20.8c9-12.7,22.6-22.3,37.7-22.3C296.5,364.6,317.4,387.5,317.4,419.4z M296.9,433.6c0-32.3-16.3-54-40.1-54
	c-7.8,0-17.5,2.4-23.8,9v62.7c0,20.8,13.6,27.1,27.4,27.1C282.7,478.5,296.9,458,296.9,433.6L296.9,433.6z"/>
<path d="M436.7,445.3c-10,17.8-23.8,36.8-48.5,36.8c-29.5,0-50.3-24.1-50.3-55.5c0-37.4,23.5-62.1,53.1-62.1
	c23.5,0,42.2,14.5,39.8,38.6h-76c-0.2,2.1-0.4,4.2-0.3,6.3c0,32.6,19.6,53.4,46.1,53.4c15.1,0,25.6-6.9,34.1-19L436.7,445.3z
	 M355,399.5h44.6c8.7,0,10-2.4,10-7.8c0-11.1-6.3-23.2-22.9-23.2C369.2,368.5,357.7,379.6,355,399.5z"/>
<path d="M556.7,471.6l-29.2,10.2c-4.5-3.6-8.7-13-8.7-25.9c-5.4,13.3-17.5,26.2-35.6,26.2s-32-12.1-32-27.4c0-16,17.8-25.3,41-37.1
	c11.8-6,20.8-12.1,27.1-19.6c-0.6-18.4-11.8-28.6-26.8-28.6c-20.8,0-26.8,18.7-26.8,39.2H465l-12.4-6c0.9-19.6,25.6-38.6,51.2-38.6
	c19.3,0,36.5,7.2,35.6,35.6c-0.6,17.5-0.9,34.7-0.9,45.5c0,9.7,0,23.2,5.4,28l11.8-3.9L556.7,471.6z M519.3,402.6
	c-5.7,6-14.2,11.8-24.1,17.2c-14.2,7.2-22.3,14.5-22.3,25.9c0,13.3,10.2,23.5,22.6,23.5c10.5,0,22.6-7.2,22.9-21.4L519.3,402.6z"/>
<path d="M611.5,476.7v2.4H563v-2.4l14.2-0.9V295.2l-15.4,3.9v-3l35-9.3h0.6v189L611.5,476.7z M658.3,372.7l-42.8,36.2l61.2,66.9
	l10.2,0.9v2.4h-34.7l-54.3-60l54-46.4l-19.3-0.9v-2.4h45.2v2.4L658.3,372.7z"/>
<path d="M784,445.3c-10,17.8-23.8,36.8-48.5,36.8c-29.5,0-50.3-24.1-50.3-55.5c0-37.4,23.5-62.1,53.1-62.1
	c23.5,0,42.2,14.5,39.8,38.6h-76c-0.2,2.1-0.4,4.2-0.3,6.3c0,32.6,19.6,53.4,46.1,53.4c15.1,0,25.6-6.9,34.1-19L784,445.3z
	 M702.3,399.5h44.6c8.7,0,10-2.4,10-7.8c0-11.1-6.3-23.2-22.9-23.2C716.5,368.5,705,379.6,702.3,399.5z"/>
<path d="M880.4,402.5l-2.1,0.6l-7.8-11.2c-5.7-8.1-11.8-11.1-19-11.1c-8.1,0-15.1,4.2-21.1,11.5v83.5l21.7,0.9v2.4H796v-2.4
	l14.2-0.9V373.6l-15.4,3.3v-3l35-7.8h0.6v24.7c6.9-15.1,22-26.5,38.3-24.7L880.4,402.5z"/>
<path d="M885.3,438.1l2.1-0.9l10.2,16.6c7.2,11.7,16.3,24.7,30.7,24.7c13.9,0,24.7-8.4,24.7-20.8c0-13.3-10-20.5-27.1-25.6l-10-3
	c-22-6.9-28.3-19.6-28.3-32.9c0-17.8,17.8-32,41.9-32c8.9-0.1,17.8,1.2,26.2,3.9l7.8,36.8l-2.1,0.9l-11.2-17.2
	c-7.5-11.8-14.5-20.8-27.1-20.8c-11.5,0-20.2,6.9-20.2,17.5c0,11.8,6.9,18.7,21.4,23.2l10,3c23.5,7.2,34.4,16,34.4,33.8
	c0,22.3-20.2,36.8-44.6,36.8c-10.5,0-22.6-1.8-31-5.7L885.3,438.1z"/>
</svg>
