<?xml version="1.0" encoding="utf-8"?>
<!-- Generator: Adobe Illustrator 17.0.0, SVG Export Plug-In . SVG Version: 6.00 Build 0)  -->
<!DOCTYPE svg PUBLIC "-//W3C//DTD SVG 1.1//EN" "http://www.w3.org/Graphics/SVG/1.1/DTD/svg11.dtd">
<svg version="1.1" id="Layer_1" xmlns="http://www.w3.org/2000/svg" xmlns:xlink="http://www.w3.org/1999/xlink" x="0px" y="0px"
	 width="1366px" height="4272.5px" viewBox="0 0 1366 4272.5" enable-background="new 0 0 1366 4272.5" xml:space="preserve">
<path d="M672.295,173.978h-53.3V154.7c32.887-1.134,49.898-5.67,62.372-30.619h19.278v227.941h-28.351V173.978L672.295,173.978z"/>
<path d="M681.994,588.766c-23.815,0-38.557,13.608-44.228,24.949l-28.351-1.134l14.742-122.476h130.415v27.217H646.839l-7.939,64.64
	c12.475-11.34,30.619-17.011,48.764-17.011c39.692,0,74.846,28.351,74.846,78.248c0,52.165-38.557,79.382-81.651,79.382
	c-51.031,0-74.846-30.619-80.517-66.909l29.485-3.402c4.536,28.351,19.278,46.495,51.031,46.495
	c27.217,0,51.031-19.278,51.031-55.568C733.026,605.777,706.943,588.766,681.994,588.766z"/>
<path d="M633.23,895.821h99.795v27.217H633.23V895.821L633.23,895.821z"/>
<path d="M681.994,1152.859h-53.3v-19.278c32.887-1.134,49.898-5.67,62.372-30.619h19.278v227.941h-28.351V1152.859L681.994,1152.859
	z"/>
<path d="M693.006,1549.621c41.959,0,73.712,31.753,73.712,77.115c0,41.959-31.753,78.248-80.517,78.248
	c-56.701,0-82.785-39.692-82.785-110.001c0-64.64,22.681-125.879,88.454-125.879c44.228,0,64.64,27.217,70.31,55.568l-30.619,2.269
	c-3.402-20.413-19.278-34.022-43.093-34.022c-35.155,0-54.434,35.155-55.568,88.454
	C643.109,1563.23,662.387,1549.621,693.006,1549.621z M736.099,1629.005c0-30.619-20.413-54.434-49.898-54.434
	c-29.485,0-49.898,22.681-49.898,54.434s19.278,53.3,49.898,53.3C715.687,1682.304,736.099,1659.623,736.099,1629.005z"/>
<path d="M664.983,2262.066h-4.536v-26.083h3.402c39.692,0,61.238-11.34,61.238-37.423c0-24.948-20.412-37.423-44.228-37.423
	c-30.619,0-45.362,18.145-49.898,44.228l-28.351-6.805c6.805-36.289,34.021-61.238,79.382-61.238
	c39.692,0,73.712,15.876,73.712,57.836c0,23.814-13.608,43.093-37.423,53.3c34.021,10.206,43.093,32.887,43.093,56.701
	c0,45.362-38.557,68.042-82.784,68.042c-49.898,0-73.712-29.485-80.517-64.64l28.351-6.804
	c4.536,28.351,19.278,46.495,52.165,46.495c30.619,0,51.031-15.876,51.031-44.228
	C730.757,2273.407,701.273,2262.066,664.983,2262.066z"/>
<path d="M638.9,3030.078h124.744v27.217H599.21v-27.217c80.517-58.97,128.146-102.063,128.146-142.888
	c0-23.815-15.877-39.692-43.093-39.692c-24.949,0-48.764,13.608-48.764,51.031l-29.484-2.267
	c1.134-44.228,31.753-72.579,79.382-72.579c41.959,0,72.578,21.547,72.578,60.104C757.974,2937.088,702.406,2983.583,638.9,3030.078
	z"/>
<path d="M599.523,3296.308c0-72.579,28.351-117.94,88.454-117.94c60.104,0,88.454,45.362,88.454,117.94
	c0,72.578-28.351,117.94-88.454,117.94C627.874,3414.248,599.523,3368.886,599.523,3296.308z M629.008,3296.308
	c0,63.506,22.681,94.125,57.836,94.125c35.155,0,57.836-30.619,57.836-94.125c0-63.506-22.681-94.125-57.836-94.125
	C651.688,3202.182,629.008,3233.936,629.008,3296.308z"/>
<path d="M686.844,3596.558h-53.3v-19.278c32.887-1.134,49.898-5.67,62.372-30.619h19.278v227.942h-28.351V3596.558L686.844,3596.558
	z"/>
<path d="M768.494,3896.809v27.217c-56.701,45.362-90.723,115.671-96.393,200.724h-35.155
	c4.536-81.651,40.825-151.961,97.527-200.725H609.729v-27.217L768.494,3896.809L768.494,3896.809z"/>
</svg>
