<?xml version="1.0" encoding="utf-8"?>
<!-- Generator: Adobe Illustrator 20.1.0, SVG Export Plug-In . SVG Version: 6.00 Build 0)  -->
<svg version="1.1" id="Layer_1" xmlns="http://www.w3.org/2000/svg" xmlns:xlink="http://www.w3.org/1999/xlink" x="0px" y="0px"
	 viewBox="0 0 1366 560" style="enable-background:new 0 0 1366 560;" xml:space="preserve">
<style type="text/css">
	.st0{fill:#231F20;}
</style>
<title>TasmeemNavSVG</title>
<path class="st0" d="M174.7,382.5h-61.1v2.4l17.6,1.2V551l-17.6,1.2v2.4h60.8c58.1,0,104.7-26.4,104.7-86.7
	C279.2,407.4,231,382.5,174.7,382.5 M154.1,551v-165h20c49.3,0,78.7,28.8,78.7,81.9S224.4,551,174.7,551L154.1,551z"/>
<path class="st0" d="M353,440.7c-28.1,0-57.5,22.8-57.5,60c0,35.7,29.1,57,56.9,57c28.5,0,57.2-22.8,57.2-60
	C409.6,461.7,380.2,440.7,353,440.7 M355.6,554c-20.5,0-34.8-21.2-36.5-57.3c-1.8-34.2,10.6-51.6,29.1-52.5h1.3
	c20.5,0,34.8,21.2,36.5,57.3c1.8,34.2-10.6,51.6-29.1,52.5H355.6"/>
<path class="st0" d="M457.8,364.8h-0.6l-35.1,7.8v3l15.4-3.3v179l-14.2,0.9v2.4H472v-2.4l-14.2-0.9V465c6.4-6.9,16.3-9.6,24.8-9.6
	c17.9,0,26.3,9,26.3,36.9v59.1l-14.2,0.9v2.4h48.4v-2.4l-13.9-0.9v-69.6c0-29.7-12.7-41.1-32.7-41.1c-17.2,0-30.6,9-38.8,22.8
	L457.8,364.8z"/>
<path class="st0" d="M608.5,440.1c-25.7,0-50.5,18.9-51.5,38.4l12.4,6h0.6c0-20.4,6-39,26.9-39c15.1,0,26.3,10.2,26.9,28.5
	c-6.4,7.5-15.4,13.5-27.2,19.5c-23.3,11.7-41.2,21-41.2,36.9c0,15.3,13.9,27.3,32.1,27.3s30.3-12.9,35.7-26.1
	c0,12.9,4.2,22.2,8.8,25.8l29.4-10.2l-0.9-2.4l-11.8,3.9c-5.5-4.8-5.5-18.3-5.5-27.9c0-10.8,0.3-27.9,0.9-45.3
	C645.2,447.3,627.9,440.1,608.5,440.1 M600.1,544.7c-12.4,0-22.7-10.2-22.7-23.4c0-11.4,8.2-18.6,22.4-25.8
	c10-5.4,18.5-11.1,24.2-17.1l-0.9,45C622.8,537.5,610.7,544.7,600.1,544.7"/>
<path class="st0" d="M260.7,5.4H114.8l-8.5,49.5l2.7,0.6l11.5-22.2c11.8-20.7,18.5-24.6,49-24.6h6.7v165.2l-21.5,1.2v2.4H222v-2.4
	l-22.7-1.2V8.7h6.7c30.6,0,37.2,3.9,49,24.6l11.5,22.2l2.7-0.6L260.7,5.4z"/>
<path class="st0" d="M315.8,62.9c-25.7,0-50.5,18.9-51.5,38.4l12.4,6h0.6c0-20.4,6-39,26.9-39c15.1,0,26.3,10.2,26.9,28.5
	c-6.4,7.5-15.4,13.5-27.2,19.5c-23.3,11.7-41.2,21-41.2,36.9c0,15.3,13.9,27.3,32.1,27.3s30.3-12.9,35.7-26.1
	c0,12.9,4.2,22.2,8.8,25.8l29.4-10.2l-0.9-2.4l-11.8,3.9c-5.5-4.8-5.5-18.3-5.5-27.9c0-10.8,0.3-27.9,0.9-45.3
	C352.4,70.1,335.2,62.9,315.8,62.9 M307.3,167.6c-12.4,0-22.7-10.2-22.7-23.4c0-11.4,8.2-18.6,22.4-25.8c10-5.4,18.5-11.1,24.2-17.1
	l-0.9,45C330,160.4,317.9,167.6,307.3,167.6"/>
<path class="st0" d="M424.5,63.3c-24.2,0-42.1,14.1-42.1,31.8c0,13.2,6.4,25.8,28.5,32.7l10,3c17.2,5.1,27.2,12.3,27.2,25.5
	c0,12.3-10.9,20.7-24.8,20.7c-14.5,0-23.6-12.9-30.9-24.6l-10.3-16.5l-2.1,0.9l7.9,38.1c8.5,3.9,20.6,5.7,31.2,5.7
	c24.5,0,44.8-14.4,44.8-36.6c0-17.7-10.9-26.4-34.5-33.6l-10-3c-14.5-4.5-21.5-11.4-21.5-23.1c0-10.5,8.8-17.4,20.3-17.4
	c12.7,0,19.7,9,27.2,20.7l11.2,17.1l2.1-0.9l-7.9-36.6C442.3,64.4,433.4,63.1,424.5,63.3"/>
<path class="st0" d="M624.3,63.6c-16.7,0-32.1,9.2-40,24c-4.2-17.1-15.7-24-31.2-24c-17.2,0-30.6,9-38.8,22.8V65.1h-0.6l-35.1,7.8v3
	l15.4-3.3v101.7l-14.2,0.9v2.4h48.7v-2.4l-14.2-0.9V87.9c6.4-6.9,16.3-9.6,24.8-9.6c17.9,0,26.6,9,26.6,36.9v59.1l-14.2,0.9v2.4H600
	v-2.4l-13.9-0.9v-69.6c0-5.3-0.5-10.7-1.5-15.9c6.1-7.2,17.6-10.5,25.7-10.5c17.9,0,26.6,9,26.6,36.9v59.1l-14.2,0.9v2.4h48.4v-2.4
	l-13.9-0.9v-69.6C657.2,75,644.2,63.6,624.3,63.6"/>
<path class="st0" d="M736.9,63.6c-29.7,0-53.3,24.6-53.3,61.8c0,31.2,20.9,55.2,50.5,55.2c24.8,0,38.8-18.9,48.7-36.6l-2.1-1.5
	c-8.5,12-19.1,18.9-34.2,18.9c-26.6,0-46.3-20.7-46.3-53.1c-0.1-2.1,0-4.2,0.3-6.3h76.3C779.3,77.9,760.5,63.5,736.9,63.6
	 M700.8,98.3c2.7-19.8,14.2-30.9,31.8-30.9c16.7,0,23,12,23,23.1c0,5.4-1.2,7.8-10,7.8H700.8z"/>
<path class="st0" d="M853.7,63.6c-29.7,0-53.3,24.6-53.3,61.8c0,31.2,20.9,55.2,50.5,55.2c24.8,0,38.8-18.9,48.7-36.6l-2.1-1.5
	c-8.5,12-19.1,18.9-34.2,18.9c-26.6,0-46.3-20.7-46.3-53.1c-0.1-2.1,0.1-4.2,0.3-6.3h76.3C896.1,77.9,877.3,63.5,853.7,63.6
	 M817.7,98.3c2.7-19.8,14.2-30.9,31.8-30.9c16.7,0,23,12,23,23.1c0,5.4-1.2,7.8-10,7.8H817.7z"/>
<path class="st0" d="M1056.5,63.6c-16.7,0-32.1,9.2-40,24c-4.2-17.1-15.7-24-31.2-24c-17.3,0-30.6,9-38.8,22.8V65.1H946l-35.1,7.8v3
	l15.4-3.3v101.7l-14.2,0.9v2.4h48.7v-2.4l-14.2-0.9V87.9c6.3-6.9,16.3-9.6,24.8-9.6c17.9,0,26.6,9,26.6,36.9v59.1l-14.2,0.9v2.4
	h48.4v-2.4l-13.9-0.9v-69.6c0-5.3-0.5-10.7-1.5-15.9c6-7.2,17.6-10.5,25.7-10.5c17.9,0,26.6,9,26.6,36.9v59.1l-14.2,0.9v2.4h48.4
	v-2.4l-13.9-0.9v-69.6C1089.5,75,1076.5,63.6,1056.5,63.6"/>
<path class="st0" d="M132,177.4c-7.9-5.9-16.2-11.2-24.8-16c4.8-8.2,9.3-15.4,13.8-23.5l1.4-0.3c17.2,9.2,22,11.9,22,17.8
	C144.4,159,139.9,166.5,132,177.4 M85.1,177.5c-7.9-5.9-16.2-11.2-24.8-16c4.8-8.2,9.3-15.4,13.8-23.5l1.4-0.3
	c17.2,9.2,22,11.9,22,17.8C97.5,159.1,93,166.6,85.1,177.5 M126.7,313c-4.5-20.8-7.6-38.6-15.5-79.5c-18.6,15-40,33.1-53,55.6
	C73.7,303.1,99.9,312.3,126.7,313 M165.4,325.5v17.4c0,1.7-0.7,3.1-2.8,3.1c-21.4,0-31.4-11.6-34.8-28.7l-9.3,17.8
	c-26.9-0.6-68.6-14-68.6-33.7c0-5.1,3.5-12.3,8.6-19.8c12.4-18.1,30.7-34.8,52-51.2l-2.1-10.2c8.1-2.1,15.7-5.7,22.5-10.6h1
	l5.9,108.5c5.2,3.4,12.4,4.8,24.8,4.8C165.1,322.8,165.4,324.2,165.4,325.5"/>
<path class="st0" d="M295.3,308.8c-4.7-1.8-9.4-4-13.8-6.5C215.7,315.6,226,346,162,346c-1.6,0.1-3-1-3.1-2.6c0-0.2,0-0.3,0-0.5
	v-17.5c0-1.5,1.3-2.8,2.9-2.7c0.1,0,0.2,0,0.2,0c51.7,0,65.4-10.6,116.1-22.9c-29.3-19.8-45.5-55.3-73.7-55.3
	c-11.7,0-18.3,6.1-33.8,21.5l-2.1-2c18.6-19.1,27.9-29,41.3-41.3c46.9,5.5,54.1,55.3,100.3,66.2
	C303.2,296.5,300.8,300.3,295.3,308.8"/>
<path class="st0" d="M412.8,314.3c-5.2-29.4-22.4-52.6-50.3-71c-10.3,17.4-19,35.8-19,47.4c0,19.8,16.9,30.4,38.2,30.4
	C394.1,321.1,402.1,319.4,412.8,314.3 M424.4,316.3c0,43-24.5,93.2-70.3,104.8c-24.5-15.4-37.9-23.5-57.2-35.5l1.4-2.7
	c21.4,11.9,32,16.4,47.5,16.4c20,0,57.5-22.2,68.2-66.9v-3.8c-9.6,7.9-23.4,14-35.1,14c-24.1,0-42-15.4-42-38.9
	c0-22.5,20.3-61.4,51-101l2.4,1.7c-4.1,4.8-9.6,12-15.2,19.8C407.6,246.3,424.5,278.4,424.4,316.3"/>
<path class="st0" d="M551.9,305.1c0,2.4-3.8,17.1-8.6,27c-20.3,9.9-40.3,14-57.2,14c-24.1,0-38.2-10.9-38.2-30.7
	c0-8.5,2.1-18.8,4.8-30.4l2.8,0.7c-0.7,5.1-1.7,9.6-1.7,13.6c0,16,10.3,23.5,39.6,23.5c16.1-0.1,32.1-3,47.2-8.5
	c-11.4-29.4-28.2-67.2-42.4-92.8c6.9-4.8,12.1-10.2,18.3-17.8h1.4C529.9,238.5,551.9,286.3,551.9,305.1"/>
<path class="st0" d="M766.2,322.5c-14.8-29.7-11-77.5-27.2-77.8c-14.5-0.3-42.7,30.7-51.3,58C708.6,314.6,737.6,321.4,766.2,322.5
	 M805.5,326.2v15.7c0,2-1,4.1-3.8,4.1c-13.4,0-22.7-5.5-29.6-14l-3.8,14c-48.6,0-86.5-14.3-86.5-33.5c0-13.6,20.3-50.2,41.7-64.9
	c-22.4,10.9-50.6,36.5-60.3,46.4c3.8,48.8,9.7,89.4,19.3,150.2c-6.7,4.1-12.8,9-18.3,14.7h-1c-4.8-68.3-10.7-117.4-10.7-138.2
	c0-5.8,6.5-22.2,9.3-28.7c3.1-6.5,51.3-51.2,78.5-50.5c38.2,0,25.5,81.2,61.3,81.2c1.9-0.1,3.6,1.3,3.8,3.3
	C805.5,326.1,805.5,326.2,805.5,326.2"/>
<path class="st0" d="M894,389c0,3.8-4.5,11.3-12.4,22.2c-7.9-5.9-16.2-11.2-24.8-16c4.8-8.2,9.3-15.4,13.8-23.5l1.4-0.3
	C889.2,380.5,894,383.3,894,389 M847.1,389.1c0,3.8-4.5,11.3-12.4,22.2c-7.9-5.9-16.2-11.2-24.8-16c4.8-8.2,9.3-15.4,13.8-23.5
	l1.4-0.3C842.3,380.6,847.1,383.3,847.1,389.1 M903.3,325.5v17.4c0,1.7-0.7,3.1-2.8,3.1c-17.2,0-36.2-2-53.7-7.5
	c-0.7,1.4-1.3,2.9-1.7,4.4c-9.3,2-26.2,3.1-43.1,3.1c-1.6,0.1-3-1-3.1-2.6c0-0.2,0-0.3,0-0.5v-17.4c0-1.5,1.3-2.8,2.9-2.7
	c0.1,0,0.2,0,0.2,0c19.3,0,37.9-0.7,47.5-2.4l4.1-10.9c3.1-8.9-8.6-59.4-8.6-59.4c7.6-5.1,13.1-9.6,19.3-17.4h1.4l-0.7,50.9
	c0,2-5.5,18.4-11.4,34.8c11.4,3.1,25.5,4.4,46.8,4.4C902.9,322.8,903.3,324.2,903.3,325.5"/>
<path class="st0" d="M997,322.5c-14.8-29.7-11-77.5-27.2-77.8c-14.5-0.3-42.7,30.7-51.3,58C939.5,314.6,968.5,321.4,997,322.5
	 M1036.3,326.2v15.7c0,2-1,4.1-3.8,4.1c-13.4,0-22.7-5.5-29.6-14l-3.8,14c-26.5,0-49.6-4.1-65.5-11.3c-14.1,7.9-23.1,11.3-33.8,11.3
	c-1.6,0.1-3-1-3.1-2.6c0-0.2,0-0.3,0-0.5v-17.5c0-1.5,1.3-2.8,2.9-2.7c0.1,0,0.2,0,0.2,0c5.3,0,10.6-0.4,15.8-1
	c-1.9-2.7-3-5.9-3.1-9.2c0-17.1,32.4-71,58.6-71c38.2,0,25.5,81.2,61.3,81.2c1.9-0.1,3.6,1.3,3.8,3.3
	C1036.3,326.1,1036.3,326.1,1036.3,326.2"/>
<path class="st0" d="M1100,322.8c31.3,0,75.1-12.3,100.9-31.4c-12.1-29-30.7-47.1-54.4-47.1c-22.4,0-33.1,14-77.5,77.1
	C1079.3,322.4,1089.6,322.9,1100,322.8 M1230.9,325.5v17.4c0.1,1.6-1.1,3-2.7,3.1c-0.1,0-0.3,0-0.4,0c-24.1,0-42-7.5-58.2-17.1
	c-23.1,10.9-52.4,17.1-78.9,17.1c-15.6,0-31.1-1.9-46.2-5.8l-1,2.4c-4.1,2-7.6,3.4-10.7,3.4c-1.6,0.1-3-1-3.1-2.6c0-0.2,0-0.3,0-0.5
	v-17.4c-0.1-1.4,0.9-2.6,2.3-2.7c0.2,0,0.3,0,0.5,0c5.4,0,10.7-0.8,15.8-2.4c4.1-11.6,9.3-27.6,14.8-44.7l3.1,1
	c-5.9,17.8-10.3,30.4-14.1,41.6c4.4,1.1,8.9,2.1,13.4,2.7c46.8-67.6,74.1-100.4,90.3-100c28.9,0,56.5,35.8,56.5,58.4
	c0,15.4-9.6,28.3-24.5,38.9c13.4,3.4,28.2,4.4,40,4.4C1230.3,322.8,1231,324.1,1230.9,325.5"/>
<path class="st0" d="M1321.5,156.2c0,3.8-4.5,11.3-12.4,22.2c-7.9-5.9-16.2-11.2-24.8-16c4.8-8.2,9.3-15.4,13.8-23.5l1.4-0.3
	C1316.7,147.8,1321.5,150.5,1321.5,156.2 M1274.6,156.3c0,3.8-4.5,11.3-12.4,22.2c-7.9-5.9-16.2-11.2-24.8-16
	c4.8-8.2,9.3-15.4,13.8-23.5l1.4-0.3C1269.8,147.8,1274.6,150.6,1274.6,156.3 M1316.2,299.7c0,3.4-4.5,20.1-8.3,29.4
	c-21.7,10.6-52.4,17.1-81,17.1c-1.6,0.1-3-1-3.1-2.6c0-0.2,0-0.3,0-0.5v-17.6c0-1.5,1.3-2.8,2.9-2.7c0.1,0,0.2,0,0.2,0
	c27.9,0,58.2-3.4,76.8-8.9c-5.9-33.1-12.4-52.2-23.1-80.2c6.9-5,13.1-11,18.3-17.8h1.4c7.9,29.7,15.8,66.5,15.8,83.6"/>
</svg>
