<?xml version="1.0" encoding="utf-8"?>
<!-- Generator: Adobe Illustrator 20.1.0, SVG Export Plug-In . SVG Version: 6.00 Build 0)  -->
<svg version="1.1" id="Layer_1" xmlns="http://www.w3.org/2000/svg" xmlns:xlink="http://www.w3.org/1999/xlink" x="0px" y="0px"
	 viewBox="0 0 1366 485" style="enable-background:new 0 0 1366 485;" xml:space="preserve">
<title>TasmeemNavSVG</title>
<path d="M731,200.9c0,29.3-34.6,54.5-63.4,54.5c-25.4,0-39.8-15.5-39.8-42.7c0-12,2.9-33.3,8.7-51.1l2.1,0.8
	c-4.2,14.7-6.8,28.6-6.8,40.3c0,22,14.9,35.4,39.8,35.4c20.2,0,39.8-10.7,51.9-28.6c-4.4-20.8-10.3-41.3-17.5-61.3
	c1.8-1.8,8.7-8.4,13.4-15.7h1C727.1,161.3,731,184.9,731,200.9z M686.2,109.2c0,2.9-3.4,8.6-9.4,17c-6-4.5-12.3-8.6-18.9-12.3
	c3.7-6.3,7.1-11.8,10.5-18.1l1-0.3C682.5,102.6,686.2,104.8,686.2,109.2L686.2,109.2z"/>
<path d="M837.9,182v13.4c0,1.3-0.5,2.4-2.1,2.4c-4.2,0-7.9,0-11.5-0.3c-6.5,26.2-23.6,51.1-50.6,57.9
	c-18.6-11.8-28.8-18.1-43.5-27.2l1-2.1c16.2,9.2,24.4,12.6,36.2,12.6c13.6,0,38-13.6,48.7-41.4c-4.5-0.3-9.4-0.8-15.5-1.3
	c-22.5-2.6-40.1-12.6-40.1-31.4c0-22.3,21-54,38.8-76.8l1.9,1.3c-3.1,3.7-7.3,9.2-11.8,15.2c24.9,17,37.5,41.6,37.5,70.7
	c0,1.7,0,3.3-0.3,5h9.2c1.1-0.1,2,0.7,2.1,1.7C837.9,181.8,837.9,181.9,837.9,182z M819,180.7c-1.8-25.9-15.5-46.1-39-61.8
	c-8.1,13.4-14.7,27.2-14.7,36.4C765.3,171.8,784.4,179.1,819,180.7z"/>
<path d="M971.5,146.7c0,30.6-50.3,51.1-92.5,51.1c-11.8,0-23.6-1.5-35.1-4.5l-0.8,1.8c-3.1,1.6-5.8,2.6-8.1,2.6
	c-1.2,0.1-2.3-0.8-2.4-2c0-0.1,0-0.3,0-0.4V182c-0.1-1.1,0.7-2,1.7-2.1c0.1,0,0.2,0,0.4,0c4.1,0,8.2-0.6,12-1.8
	c3.1-8.9,7.1-21.2,11.3-34.3l2.4,0.8c-4.5,13.6-7.9,23.3-10.7,32c3.4,0.9,6.8,1.6,10.2,2.1c35.6-51.9,56.3-77,68.6-76.8
	C950.5,101.9,971.5,129.4,971.5,146.7z M962.8,155.8c-9.2-22.3-23.3-36.1-41.4-36.1c-17,0-25.2,10.7-58.9,59.2
	c7.8,0.7,15.7,1.1,23.6,1C909.9,179.9,943.2,170.5,962.8,155.8L962.8,155.8z M884.2,90.8c-6-4.5-12.3-8.6-18.9-12.3
	c3.7-6.3,7.1-11.8,10.5-18.1l1-0.3c13.1,7.1,16.8,9.2,16.8,13.6C893.7,76.7,890.3,82.5,884.2,90.8L884.2,90.8z"/>
<path d="M985.9,238.9c18.1,0,40.6-17.3,49.2-50.3c-8.1-22.3-15.2-36.1-27.8-57.4c1.8-1.8,8.7-8.1,13.4-15.5h0.8
	c8.9,19.9,20.7,49.8,20.7,69.2c0,32.2-21.2,63.7-50,70.5c-18.1-11.3-27.5-17.5-41.4-25.9l1-2.1C966.8,235.5,974.4,238.9,985.9,238.9
	z"/>
<path d="M1088.1,176.8c6.3,2.4,16.2,3.1,24.6,3.1c1.8,0,2.1,1,2.1,2.1v13.4c0,1.3-0.5,2.4-2.1,2.4c-6.3,0-21-1-25.4-3.9
	c-4.2-6.3-7.3-12-7.9-15.2c-4.2-51.9-6.8-103.5-10-159.3c6.4-1.5,12.5-4.2,17.8-8.1h0.8L1088.1,176.8z"/>
<path d="M1215.1,182.3v12.8c0.2,1.3-0.8,2.5-2,2.6c-0.2,0-0.4,0-0.6,0c-21,0-36.4-5.2-48.5-14.9c-15.7,9.2-34.1,14.9-52.1,14.9
	c-1.3,0-2.4-1.1-2.4-2.4c0-0.1,0-0.2,0-0.2v-12.8c0-1.3,1-2.4,2.3-2.4c0,0,0,0,0,0c12.8,0,27.8-2.4,41.1-8.1
	c-10-11.5-17.6-27-25.4-45.6c-1.2,0.6-2.3,1.3-3.4,2.1h-0.8c-0.9-6-2.5-11.9-4.7-17.5c16-8.4,30.1-13.1,44.3-13.1
	c21.5,0,41.7,14.1,41.7,31.7c0,16.2-13.1,34.6-32.2,47.9c6.3,1.8,13.4,2.6,21.7,2.6h18.3C1214.6,179.9,1215.1,181.2,1215.1,182.3z
	 M1129.7,124.9c9.7,22.5,17.8,36.7,28,44.8c17-8.2,31-21.6,40.1-38.2c-10.7-11-22-16.5-35.6-16.5
	C1151.7,115,1140.7,118.6,1129.7,124.9z"/>
<path d="M1250,166.3c0,2.4-4.2,15.7-6.8,22.5c-6.8,5.8-17.6,8.9-30.9,8.9c-1.1,0.2-2.2-0.6-2.4-1.8c0-0.2,0-0.4,0-0.6V182
	c0-1.2,1-2.1,2.2-2.1c0.1,0,0.1,0,0.2,0c11.8,0,21.7-2.4,29.1-6c-2.9-49.8-6.3-98-10-148.8c6.4-1.5,12.5-4.2,17.8-8.1h0.8
	L1250,166.3z"/>
<path d="M1300.5,167.9c-6.6,7.9-8.4,16.2-8.4,36.9h-2.4c-1-70.7-3.1-133.1-7.9-194.4c6.4-1.5,12.5-4.2,17.8-8.1h0.8L1300.5,167.9z"
	/>
<path d="M212.2,429.8l2.7,0.6l-8.4,50H67.8V478l17.5-1.2V311l-17.5-1.2v-2.4h123.6l8.4,49.7l-2.7,0.6l-11.5-22
	C173.9,315,161.2,311,130.8,311h-22.6v75.7h22.6c21.4,0.3,27.4-2.4,34.4-31.7h2.7v67h-2.7c-6.9-29.5-13-31.7-34.4-31.7h-22.6v86.5
	h37.7c30.4,0,43.4-4.2,54.9-24.7L212.2,429.8z"/>
<path d="M346.6,478v2.4h-52.8V478l14.2-0.9l-32-43.7l-36.5,43.7l16.6,0.9v2.4h-38V478l16.6-0.9l38.9-47l-41-56.1l-13.9-0.9v-2.4
	h52.8v2.4l-14.2,0.9l29.5,40.4l33.5-40.4l-16.6-0.9v-2.4h38.4v2.4l-16.9,0.9L289,417.5l43.7,59.7L346.6,478z"/>
<path d="M472.9,478v2.4h-48.2V478l14.2-0.9v-59.4c0-28-8.4-37.1-26.2-37.1c-8.4,0-18.4,2.7-24.7,9.7v86.8l14.2,0.9v2.4h-48.5v-2.4
	l14.2-0.9v-180l-15.4,3.3v-3l35-7.8h0.6v99.2c8.1-13.9,21.4-22.9,38.6-22.9c19.9,0,32.6,11.5,32.6,41.3v69.9L472.9,478z"/>
<path d="M531.4,478v2.4h-48.2V478l14.2-0.9V375l-15.3,3.3v-3l35-7.8h0.6v109.7L531.4,478z M506.4,292.7c8.2,0,14.9,6.6,15.1,14.8
	c-0.1,8.3-6.8,14.9-15.1,15.1c-8.2-0.2-14.8-6.9-14.8-15.1C491.7,299.3,498.2,292.7,506.4,292.7L506.4,292.7z"/>
<path d="M659.5,420.8c0,35.9-26.5,62.7-58.5,62.7c-15.1,0-25.6-3.6-33.8-8.7l-12.7,8.7V297.2l-15.4,3.3v-3l35-7.8h0.6v99.2
	c9-13.3,22.6-22.9,38-22.9C638.4,365.9,659.5,388.8,659.5,420.8z M639,434.9c0-32.2-16.6-54-40.4-54c-7.5,0-17.2,2.4-23.8,9v62.4
	c0,23.2,15.7,27.4,27.4,27.4C624.8,479.9,639,459.4,639,434.9z"/>
<path d="M722.8,478v2.4h-48.2V478l14.2-0.9V375l-15.4,3.3v-3l35-7.8h0.6v109.7L722.8,478z M697.8,292.7c8.2,0,14.9,6.6,15.1,14.8
	c-0.1,8.3-6.8,14.9-15.1,15.1c-8.2-0.1-14.8-6.8-14.8-15.1C683,299.3,689.6,292.7,697.8,292.7L697.8,292.7z"/>
<path d="M749.3,384h-22.6l3.9-13.3h18.7v-24.4c7.5-1.8,14.8-6,19.3-11.5h0.9v35.9h38l-3.9,13.3h-34.1v66c0,17.8,6.6,21.7,17.5,21.7
	c8.4,0,17.5-3.3,23.5-10.2l1.8,1.5c-10.2,13.6-23.8,20.5-36.8,20.5c-15.7,0-26.2-6.9-26.2-30.8L749.3,384z"/>
<path d="M874.1,365.9c27.1,0,56.4,21.1,56.4,57.3c0,37.4-28.6,60.3-57,60.3c-27.7,0-56.7-21.4-56.7-57.3
	C816.9,388.8,846.1,365.9,874.1,365.9z M878.1,479.9c18.4-0.9,30.8-18.4,28.9-52.8c-1.8-37.1-16.6-58.5-37.7-57.6
	c-18.4,0.9-30.8,18.4-28.9,52.8C842.2,459.4,857,480.8,878.1,479.9z"/>
<path d="M1029.4,403.9l-2.1,0.6l-7.8-11.2c-5.7-8.1-11.8-11.2-19-11.2c-8.1,0-15.1,4.2-21.1,11.5v83.5l21.7,0.9v2.4h-56v-2.4
	l14.2-0.9V375l-15.4,3.3v-3l35-7.8h0.6v24.7c6.9-15.1,22-26.5,38.3-24.7L1029.4,403.9z"/>
<path d="M1034.2,439.5l2.1-0.9l10.2,16.6c7.2,11.8,16.3,24.7,30.8,24.7c13.9,0,24.7-8.4,24.7-20.8c0-13.3-9.9-20.5-27.1-25.6l-9.9-3
	c-22-6.9-28.3-19.6-28.3-32.9c0-17.8,17.8-32,41.9-32c8.9-0.1,17.8,1.2,26.2,3.9l7.8,36.8l-2.1,0.9l-11.2-17.2
	c-7.5-11.8-14.5-20.8-27.1-20.8c-11.5,0-20.2,6.9-20.2,17.5c0,11.8,6.9,18.7,21.4,23.2l9.9,3c23.5,7.2,34.4,16,34.4,33.8
	c0,22.3-20.2,36.8-44.6,36.8c-10.6,0-22.6-1.8-31-5.7L1034.2,439.5z"/>
</svg>
