<?xml version="1.0" encoding="utf-8"?>
<!-- Generator: Adobe Illustrator 20.1.0, SVG Export Plug-In . SVG Version: 6.00 Build 0)  -->
<svg version="1.1" id="Layer_1" xmlns="http://www.w3.org/2000/svg" xmlns:xlink="http://www.w3.org/1999/xlink" x="0px" y="0px"
	 viewBox="0 0 1366 485" style="enable-background:new 0 0 1366 485;" xml:space="preserve">
<title>TasmeemNavSVG</title>
<path d="M173.8,180.7V194c0.1,1.2-0.8,2.3-2,2.4c-0.1,0-0.2,0-0.3,0c-7.3,0-13.9-1.6-21.2-3.7c-3.7,28.8-23.3,55-49.5,61.3
	c-18.1-11.3-27.5-17.5-41.4-25.9l1-2.1c14.9,8.1,22.5,11.5,34.1,11.5c18.1,0,40.6-17.3,49.2-50.3c-8.1-22.3-15.2-36.1-27.8-57.4
	c1.8-1.8,8.7-8.1,13.4-15.5h0.8c7.9,17.5,17.8,42.4,20.2,61.6c6.9,1.8,14.1,2.7,21.2,2.6C173.3,178.6,173.8,179.6,173.8,180.7z"/>
<path d="M274.7,181.2v12c0,1.6-0.8,3.1-2.9,3.1c-10.2,0-17.3-4.2-22.5-10.7l-2.9,10.7c-20.2,0-37.7-3.1-49.8-8.6
	c-10.7,6-17.6,8.6-25.7,8.6c-1.2,0.1-2.3-0.8-2.4-2c0-0.1,0-0.3,0-0.4v-13.4c0-1.2,1-2.1,2.2-2.1c0.1,0,0.1,0,0.2,0
	c4,0,8.1-0.3,12.1-0.8c-1.5-2.1-2.3-4.5-2.4-7.1c0-13.1,24.6-54.5,44.5-54.5c29.1,0,19.4,62.4,46.6,62.4c1.5-0.1,2.8,1,2.9,2.5
	C274.7,181.1,274.7,181.2,274.7,181.2z M244.8,178.3c-11.3-22.8-8.4-59.5-20.7-59.7c-11-0.3-32.5,23.6-39,44.5
	C201.1,172.3,223.1,177.5,244.8,178.3L244.8,178.3z"/>
<path d="M339.9,160.8c0,2.6-3.4,15.5-6.3,22.5c-16.5,8.1-39.8,13.1-61.6,13.1c-1.2,0.1-2.3-0.8-2.4-2c0-0.1,0-0.3,0-0.4v-13.4
	c0-1.2,1-2.1,2.2-2.1c0.1,0,0.1,0,0.2,0c21.2,0,44.3-2.6,58.4-6.8c-4.5-25.4-9.5-40.1-17.5-61.6c5.3-3.9,9.9-8.4,13.9-13.6h1
	C333.9,119.4,339.9,147.7,339.9,160.8z M308.2,50.8c0,2.9-3.4,8.6-9.4,17c-6-4.5-12.3-8.6-18.9-12.3c3.7-6.3,7.1-11.8,10.5-18.1
	l1-0.3C304.5,44.2,308.2,46.3,308.2,50.8L308.2,50.8z M343.8,50.8c0,2.9-3.4,8.6-9.4,17c-6-4.5-12.3-8.6-18.9-12.3
	c3.7-6.3,7.1-11.8,10.5-18.1l1-0.3C340.2,44.2,343.8,46.3,343.8,50.8L343.8,50.8z"/>
<path d="M447,180.7V194c0,1.3-0.5,2.4-2.1,2.4c-4.2,0-7.9,0-11.5-0.3c-6.5,26.2-23.6,51.1-50.6,57.9c-18.5-11.7-28.8-18-43.4-27.2
	l1-2.1c16.2,9.2,24.4,12.6,36.1,12.6c13.6,0,38-13.6,48.7-41.4c-4.5-0.3-9.4-0.8-15.5-1.3c-22.5-2.6-40-12.6-40-31.4
	c0-22.3,21-54,38.8-76.8l1.8,1.3c-3.1,3.7-7.3,9.2-11.8,15.2c24.9,17,37.5,41.6,37.5,70.7c0,1.7,0,3.3-0.3,5h9.2
	c1.1-0.1,2,0.7,2.1,1.8C447,180.5,447,180.6,447,180.7z M372.9,64.1c5.1-3.5,10.6-6.4,16.2-8.9c-7.6-2.4-13.6-8.1-13.6-13.1
	c0-10.2,14.9-23.3,25.4-23.3c6.3,0,10.2,3.7,10.2,12.1c0,3.9-1.3,11.5-2.9,19.6c2.6-0.5,5.5-1.3,8.9-2.1l0.3,1
	c-2.2,4.1-4.1,8.3-5.8,12.6c-2.1,0.3-3.9,0.8-5.8,1c-0.8,3.7-1.6,7.1-2.1,10.2l-2.4-0.3c0.8-3.4,1.3-6.6,1.8-9.4
	c-12.3,2.1-20.2,4.4-29.6,8.6L372.9,64.1z M428.2,179.4c-1.8-25.9-15.5-46.1-39-61.8c-8.2,13.4-14.7,27.2-14.7,36.5
	C374.5,170.5,393.6,177.8,428.2,179.4L428.2,179.4z M393.6,52.3c4.1,0,8.3-0.4,12.3-1.3c1.3-7.6,2.4-13.1,2.4-15.7
	c0-3.1-2.1-4.7-5-4.7c-6.8,0-17.3,5.8-24.9,13.9C382.3,49.4,386,52.3,393.6,52.3z"/>
<path d="M547.9,181.2v12c0,1.6-0.8,3.1-2.9,3.1c-10.2,0-17.3-4.2-22.5-10.7l-2.9,10.7c-20.2,0-37.7-3.1-49.8-8.6
	c-10.7,6-17.5,8.6-25.7,8.6c-1.2,0.1-2.3-0.8-2.4-2c0-0.1,0-0.3,0-0.4v-13.3c0-1.2,1-2.1,2.2-2.1c0.1,0,0.1,0,0.2,0
	c4,0,8.1-0.3,12-0.8c-1.5-2.1-2.3-4.5-2.4-7.1c0-13.1,24.6-54.5,44.5-54.5c29.1,0,19.4,62.4,46.6,62.4c1.5-0.1,2.8,1,2.9,2.5
	C547.9,181.1,547.9,181.2,547.9,181.2z M518,178.3c-11.3-22.8-8.4-59.5-20.7-59.7c-11-0.3-32.5,23.6-39,44.5
	C474.3,172.3,496.3,177.5,518,178.3z"/>
<path d="M583,165c0,2.4-4.2,15.7-6.8,22.5c-6.8,5.8-17.5,8.9-30.9,8.9c-1.1,0.2-2.2-0.6-2.4-1.8c0-0.2,0-0.4,0-0.6v-13.4
	c0-1.2,1-2.1,2.2-2.1c0.1,0,0.1,0,0.2,0c11.8,0,21.7-2.4,29.1-6c-2.9-49.8-6.3-98-10-148.8c6.4-1.5,12.5-4.2,17.8-8.1h0.8V165z"/>
<path d="M633.6,166.5c-6.5,7.9-8.4,16.2-8.4,36.9h-2.4c-1-70.7-3.1-133.1-7.9-194.4c6.4-1.4,12.5-4.2,17.8-8.1h0.8V166.5z"/>
<path d="M868.5,153.7c0,2.4-3.7,15.5-6.5,22.5c-27.5,13.3-57.7,20.2-88.3,20.2c-37.2,0-55.8-13.9-55.8-42.4
	c0-10.2,1.6-20.4,4.2-33.8l2.4,0.5c-1.5,7-2.4,14.1-2.6,21.2c0,25.9,20.4,36.7,55.8,36.7c29.9,0,59.2-5.2,81.2-13.9
	c-4.5-25.7-9.2-40.1-17.5-61.6c5.3-3.9,10-8.5,14.2-13.6h1C862.5,112.3,868.5,140.3,868.5,153.7z M783.4,85.6c0,2.9-3.4,8.6-9.4,17
	c-6-4.5-12.3-8.6-18.9-12.3c3.7-6.3,7.1-11.8,10.5-18.1l1-0.3C779.7,79,783.4,81.1,783.4,85.6L783.4,85.6z M819,85.6
	c0,2.9-3.4,8.6-9.4,17c-6-4.5-12.3-8.6-18.9-12.3c3.7-6.3,7.1-11.8,10.5-18.1l1-0.3C815.4,79,819,81.1,819,85.6L819,85.6z"/>
<path d="M914.7,175.5c6.3,2.4,16.2,3.1,24.6,3.1c1.8,0,2.1,1,2.1,2.1V194c0,1.3-0.5,2.4-2.1,2.4c-6.3,0-21-1-25.4-3.9
	c-4.2-6.3-7.3-12-7.9-15.2c-4.2-51.9-6.8-103.5-10-159.3c6.4-1.5,12.5-4.2,17.8-8.1h0.8L914.7,175.5z"/>
<path d="M1015.5,180.7V194c0,1.3-0.5,2.4-2.1,2.4c-13.1,0-27.5-1.6-40.9-5.8c-0.5,1.1-1,2.2-1.3,3.4c-7.1,1.6-19.9,2.4-32.8,2.4
	c-1.2,0.1-2.3-0.8-2.4-2c0-0.1,0-0.3,0-0.4v-13.3c0-1.2,1-2.1,2.2-2.1c0.1,0,0.1,0,0.2,0c14.7,0,28.8-0.5,36.2-1.8l3.1-8.4
	c2.4-6.8-6.5-45.6-6.5-45.6c5.6-3.6,10.6-8.1,14.7-13.4h1l-0.5,39c0,1.6-4.2,14.1-8.6,26.7c8.6,2.4,19.4,3.4,35.6,3.4
	C1015.3,178.6,1015.5,179.6,1015.5,180.7z M972.8,229.4c0,2.9-3.4,8.6-9.4,17c-6-4.5-12.3-8.6-18.9-12.3c3.7-6.3,7.1-11.8,10.5-18.1
	l1-0.3C969.2,222.9,972.8,225,972.8,229.4L972.8,229.4z M1008.5,229.4c0,2.9-3.4,8.6-9.4,17c-6-4.5-12.3-8.6-18.9-12.3
	c3.7-6.3,7.1-11.8,10.5-18.1l1-0.3C1004.8,222.9,1008.5,225,1008.5,229.4L1008.5,229.4z"/>
<path d="M1050.6,165c0,2.4-4.2,15.7-6.8,22.5c-6.8,5.8-17.6,8.9-30.9,8.9c-1.1,0.2-2.2-0.6-2.4-1.8c0-0.2,0-0.4,0-0.6v-13.4
	c0-1.2,1-2.1,2.2-2.1c0.1,0,0.1,0,0.2,0c11.8,0,21.7-2.4,29.1-6c-2.9-49.8-6.3-98-10-148.8c6.4-1.5,12.5-4.2,17.8-8.1h0.8
	L1050.6,165z"/>
<path d="M1099.9,175.5c6.3,2.4,16.2,3.1,24.6,3.1c1.8,0,2.1,1,2.1,2.1V194c0,1.3-0.5,2.4-2.1,2.4c-6.3,0-21-1-25.4-3.9
	c-4.2-6.3-7.3-12-7.9-15.2c-4.2-51.9-6.8-103.5-10-159.3c6.4-1.5,12.5-4.2,17.8-8.1h0.8L1099.9,175.5z"/>
<path d="M1226.9,181v12.8c0.2,1.3-0.8,2.5-2,2.6c-0.2,0-0.4,0-0.6,0c-21,0-36.4-5.2-48.5-14.9c-15.7,9.2-34.1,14.9-52.1,14.9
	c-1.3,0-2.4-1.1-2.4-2.4c0-0.1,0-0.2,0-0.2V181c0-1.3,1-2.4,2.3-2.4c0,0,0,0,0,0c12.8,0,27.8-2.4,41.1-8.1
	c-10-11.5-17.6-27-25.4-45.6c-1.2,0.6-2.3,1.3-3.4,2.1h-0.8c-0.9-6-2.5-11.9-4.7-17.5c16-8.4,30.1-13.1,44.3-13.1
	c21.5,0,41.7,14.1,41.7,31.7c0,16.2-13.1,34.6-32.2,47.9c6.3,1.8,13.4,2.6,21.7,2.6h18.3C1226.4,178.6,1226.9,179.9,1226.9,181z
	 M1141.5,123.6c9.7,22.5,17.8,36.7,28,44.8c17-8.2,31-21.6,40.1-38.2c-10.7-11-22-16.5-35.6-16.5
	C1163.5,113.6,1152.5,117.3,1141.5,123.6L1141.5,123.6z"/>
<path d="M1302.1,158.7c0,2.9-4.4,15.5-7.9,21.7c-20.7,11.5-40.9,16-70.2,16c-1.2,0.1-2.3-0.8-2.4-2c0-0.1,0-0.3,0-0.4V181
	c0-1.3,1-2.4,2.3-2.4c0,0,0,0,0,0c29.3,0,46.6-1.8,68.1-10c-0.5-7.7-1.5-15.3-3.1-22.8c-8.7,8.9-18.9,15.2-30.9,15.2
	c-15.5,0-25.7-9.4-25.7-26.5c0-23.3,22.3-60.8,34.6-81.5l2.1,1.3c-4.1,6.3-7.9,12.7-11.3,19.4
	C1291.9,96.6,1302.1,128.5,1302.1,158.7z M1286.7,136.9c-5.5-17.8-16.2-33-36.9-47.9c-7.1,14.9-12.6,28.8-12.6,36.1
	c0,12,8.7,19.6,22.8,19.6C1268.6,144.8,1277.8,142.2,1286.7,136.9z M1257.3,41.8c-6-4.5-12.3-8.6-18.9-12.3
	c3.7-6.3,7.1-11.8,10.5-18.1l1-0.3c13.1,7.1,16.8,9.2,16.8,13.6C1266.8,27.7,1263.3,33.4,1257.3,41.8L1257.3,41.8z"/>
<path d="M67.7,425.2l2.4-0.9l14.2,23.2c10.6,17.5,21.1,31,38.6,31c24.1,0,41-15.4,41-35.6c0-17.8-9.6-30.5-35.3-40.7l-20.8-8.4
	c-25.9-10.5-36.5-27.1-36.5-47c0-26.5,26.5-43.7,54.3-43.7c14.1,0,28.1,2.5,41.3,7.5l9,47.6l-2.4,0.9l-13.9-22.9
	c-10.9-17.8-19.3-29.5-37.4-29.5c-19.9,0-32.9,11.5-32.9,30.5c0,16.3,8.7,26.5,24.4,32.9l23.5,9.7c29.8,12.4,46.7,24.7,46.7,51.5
	c0,33.2-32.9,51-63,51c-15-0.1-29.9-2.7-44-7.8L67.7,425.2z"/>
<path d="M295.3,408l-10.9-15.4c-8.7-12.7-21.4-21.1-34.1-21.1c-15.7,0-29.8,12.1-29.8,38.9c0,33.2,19.6,52.5,45.8,52.5
	c14.5,0,25.9-6.9,34.1-19l2.1,1.5c-10,17.8-23.8,36.8-48.2,36.8c-29.8,0-50.3-22.9-50.3-55.5c0-42.8,29.8-61.5,60-61.5
	c8.3-0.1,16.6,1.2,24.4,3.9l9,38.3L295.3,408z"/>
<path d="M431.6,476.7v2.4h-48.2v-2.4l14.2-0.9v-59.4c0-28-8.4-37.1-26.2-37.1c-8.4,0-18.4,2.7-24.7,9.7v86.8l14.2,0.9v2.4h-48.5
	v-2.4l14.2-0.9v-180l-15.4,3.4v-3l35-7.8h0.6v99.2c8.1-13.9,21.4-22.9,38.6-22.9c19.9,0,32.6,11.5,32.6,41.3v69.9L431.6,476.7z"/>
<path d="M542.8,445.4c-10,17.8-23.8,36.8-48.5,36.8c-29.5,0-50.3-24.1-50.3-55.5c0-37.4,23.5-62.1,53.1-62.1
	c23.5,0,42.2,14.5,39.8,38.6h-76c-0.2,2.1-0.4,4.2-0.3,6.3c0,32.6,19.6,53.4,46.1,53.4c15.1,0,25.6-6.9,34.1-19L542.8,445.4z
	 M461.1,399.5h44.6c8.7,0,10-2.4,10-7.8c0-11.2-6.3-23.2-22.9-23.2C475.3,368.5,463.8,379.6,461.1,399.5L461.1,399.5z"/>
<path d="M678.8,472.2v2.7l-34.1,6v-21.4c-9,13-22.6,22.6-37.7,22.6c-25.9,0-46.7-22.9-46.7-54.9c0-35.9,26.5-62.7,60.9-62.7
	c8.4,0,18.1,1.2,23.5,3.6v-72.3l-17.5,3.9v-3l37.1-8.4h0.6v186L678.8,472.2z M644.7,457.7v-63c0-20.2-13.3-26.5-27.4-26.5
	c-22.3,0-36.5,20.5-36.5,44.6c0,32.3,16.3,54.3,40.1,54.3C628.7,467.1,638.4,464.7,644.7,457.7L644.7,457.7z"/>
<path d="M806.6,470.4v3l-34.7,7.5v-22c-8.1,13.9-21.1,23.2-38.6,23.2c-19.9,0-32.2-11.8-32.2-41.3v-67.5l-15.4,3.6v-3l35-7.8h0.6
	v67.2c0,26.5,8.1,34.7,24.7,34.7c9.7,0,19.9-3.6,25.9-10.2v-84.4l-15.4,3.6v-3l35-7.8h0.6v107.3L806.6,470.4z"/>
<path d="M868.4,476.7v2.4h-48.2v-2.4l14.2-0.9v-180l-15.4,3.3v-3l35-7.8h0.6v187.5L868.4,476.7z"/>
<path d="M982.9,445.4c-10,17.8-23.8,36.8-48.5,36.8c-29.5,0-50.3-24.1-50.3-55.5c0-37.4,23.5-62.1,53.1-62.1
	c23.5,0,42.2,14.5,39.8,38.6h-76c-0.2,2.1-0.4,4.2-0.3,6.3c0,32.6,19.6,53.4,46.1,53.4c15.1,0,25.6-6.9,34.1-19L982.9,445.4z
	 M901.2,399.5h44.6c8.7,0,10-2.4,10-7.8c0-11.2-6.3-23.2-22.9-23.2C915.4,368.5,904,379.6,901.2,399.5L901.2,399.5z"/>
</svg>
